<svg width="39" height="39" viewBox="0 0 39 39" fill="none" xmlns="http://www.w3.org/2000/svg">
<g id="gg:bot">
<g id="Group">
<path id="Vector" d="M22.9531 21.125H16.4531V24.375H22.9531V21.125Z" fill="black"/>
<path id="Vector_2" fill-rule="evenodd" clip-rule="evenodd" d="M13.2031 21.125C14.0651 21.125 14.8917 20.7826 15.5012 20.1731C16.1107 19.5636 16.4531 18.737 16.4531 17.875C16.4531 17.013 16.1107 16.1864 15.5012 15.5769C14.8917 14.9674 14.0651 14.625 13.2031 14.625C12.3412 14.625 11.5145 14.9674 10.905 15.5769C10.2955 16.1864 9.95313 17.013 9.95312 17.875C9.95313 18.737 10.2955 19.5636 10.905 20.1731C11.5145 20.7826 12.3412 21.125 13.2031 21.125ZM13.2031 18.6875C13.4186 18.6875 13.6253 18.6019 13.7776 18.4495C13.93 18.2972 14.0156 18.0905 14.0156 17.875C14.0156 17.6595 13.93 17.4528 13.7776 17.3005C13.6253 17.1481 13.4186 17.0625 13.2031 17.0625C12.9876 17.0625 12.781 17.1481 12.6286 17.3005C12.4762 17.4528 12.3906 17.6595 12.3906 17.875C12.3906 18.0905 12.4762 18.2972 12.6286 18.4495C12.781 18.6019 12.9876 18.6875 13.2031 18.6875ZM29.4531 17.875C29.4531 18.737 29.1107 19.5636 28.5012 20.1731C27.8917 20.7826 27.0651 21.125 26.2031 21.125C25.3412 21.125 24.5145 20.7826 23.905 20.1731C23.2955 19.5636 22.9531 18.737 22.9531 17.875C22.9531 17.013 23.2955 16.1864 23.905 15.5769C24.5145 14.9674 25.3412 14.625 26.2031 14.625C27.0651 14.625 27.8917 14.9674 28.5012 15.5769C29.1107 16.1864 29.4531 17.013 29.4531 17.875ZM27.0156 17.875C27.0156 18.0905 26.93 18.2972 26.7776 18.4495C26.6253 18.6019 26.4186 18.6875 26.2031 18.6875C25.9876 18.6875 25.781 18.6019 25.6286 18.4495C25.4762 18.2972 25.3906 18.0905 25.3906 17.875C25.3906 17.6595 25.4762 17.4528 25.6286 17.3005C25.781 17.1481 25.9876 17.0625 26.2031 17.0625C26.4186 17.0625 26.6253 17.1481 26.7776 17.3005C26.93 17.4528 27.0156 17.6595 27.0156 17.875Z" fill="black"/>
<path id="Vector_3" fill-rule="evenodd" clip-rule="evenodd" d="M4.46715 23.8323C5.27417 25.4594 6.51963 26.8287 8.06316 27.7859C9.60668 28.7432 11.3869 29.2503 13.2031 29.25H26.2031C30.1681 29.25 33.5806 26.884 35.1049 23.4861C35.744 23.0363 36.2654 22.4393 36.6252 21.7455C36.985 21.0517 37.1725 20.2815 37.1719 19.5C37.1719 17.8539 36.3545 16.3963 35.1049 15.5155C34.3357 13.798 33.0859 12.3398 31.5064 11.3168C29.9268 10.2937 28.085 9.74961 26.2031 9.75H13.2031C11.3872 9.75005 9.6073 10.2573 8.06409 11.2145C6.52088 12.1717 5.27567 13.5409 4.46877 15.1677C3.67358 15.5781 3.00667 16.1993 2.54109 16.9635C2.0755 17.7276 1.82922 18.6052 1.82922 19.5C1.82922 20.3948 2.0755 21.2724 2.54109 22.0365C3.00667 22.8007 3.67196 23.4219 4.46715 23.8323ZM13.2031 13H26.2031C28.4522 13 30.433 14.1408 31.6014 15.8763C32.0499 16.9975 32.2969 18.2195 32.2969 19.5C32.2969 20.7805 32.0499 22.0025 31.6014 23.1237C31.0071 24.0097 30.2037 24.7356 29.2621 25.2373C28.3206 25.739 27.27 26.0009 26.2031 26H13.2031C11.4792 26 9.82594 25.3152 8.60695 24.0962C7.38797 22.8772 6.70315 21.2239 6.70315 19.5C6.70315 17.7761 7.38797 16.1228 8.60695 14.9038C9.82594 13.6848 11.4792 13 13.2031 13Z" fill="black"/>
</g>
</g>
</svg>
